<svg xmlns="http://www.w3.org/2000/svg" width="64" height="64" viewBox="0 0 64 64">
  <circle cx="32" cy="32" r="30" fill="#f7931a"/>
  <path d="M44.374 29.217c0.387-2.593-1.587-3.988-4.286-4.914l0.875-3.511-2.136-0.532-0.852 3.417c-0.561-0.14-1.138-0.272-1.712-0.404l0.858-3.438-2.134-0.532-0.876 3.511c-0.464-0.106-0.92-0.21-1.362-0.32l0.002-0.011-2.944-0.736-0.568 2.279c0 0 1.587 0.364 1.553 0.386-0.865 0.216-1.021 0.788-0.994 1.241l0.994 3.985c0.047-0.012 0.109-0.028 0.177-0.028l-0.179 0.044 1.392 5.579c0.035 0.245-0.007 0.659-0.52 0.81 0.029 0.014-1.554-0.387-1.554-0.387l-1.062 2.448 2.777 0.693c0.517 0.13 1.023 0.266 1.522 0.394l-0.884 3.548 2.133 0.532 0.876-3.514c0.582 0.158 1.148 0.304 1.701 0.441l-0.872 3.495 2.136 0.532 0.884-3.541c3.639 0.688 6.371 0.411 7.522-2.88 0.926-2.651-0.046-4.182-1.957-5.177 1.392-0.321 2.44-1.235 2.718-3.126zM37.656 37.323c-0.658 2.651-5.113 1.219-6.559 0.859l1.17-4.69c1.446 0.361 6.082 1.075 5.389 3.831zM38.315 29.155c-0.6 2.403-4.308 1.183-5.508 0.883l1.061-4.255c1.2 0.299 5.062 0.857 4.447 3.372z" fill="#ffffff"/>
</svg>