<svg xmlns="http://www.w3.org/2000/svg" width="1920" height="800" viewBox="0 0 1920 800">
  <!-- Arka plan gradyan -->
  <defs>
    <linearGradient id="bg-gradient" x1="0%" y1="0%" x2="0%" y2="100%">
      <stop offset="0%" stop-color="#1e2124" stop-opacity="0.9"/>
      <stop offset="100%" stop-color="#121416" stop-opacity="1"/>
    </linearGradient>
    
    <radialGradient id="spotlight" cx="50%" cy="30%" r="70%" fx="50%" fy="30%">
      <stop offset="0%" stop-color="#ff6b00" stop-opacity="0.2"/>
      <stop offset="100%" stop-color="#1e2124" stop-opacity="0"/>
    </radialGradient>
  </defs>
  
  <!-- Arka plan -->
  <rect width="1920" height="800" fill="url(#bg-gradient)"/>
  
  <!-- Işık efekti -->
  <rect width="1920" height="800" fill="url(#spotlight)"/>
  
  <!-- Desenler -->
  <g opacity="0.1">
    <!-- Yatay çizgiler -->
    <line x1="0" y1="100" x2="1920" y2="100" stroke="#ff6b00" stroke-width="1"/>
    <line x1="0" y1="200" x2="1920" y2="200" stroke="#ff6b00" stroke-width="1"/>
    <line x1="0" y1="300" x2="1920" y2="300" stroke="#ff6b00" stroke-width="1"/>
    <line x1="0" y1="400" x2="1920" y2="400" stroke="#ff6b00" stroke-width="1"/>
    <line x1="0" y1="500" x2="1920" y2="500" stroke="#ff6b00" stroke-width="1"/>
    <line x1="0" y1="600" x2="1920" y2="600" stroke="#ff6b00" stroke-width="1"/>
    <line x1="0" y1="700" x2="1920" y2="700" stroke="#ff6b00" stroke-width="1"/>
    
    <!-- Dikey çizgiler -->
    <line x1="200" y1="0" x2="200" y2="800" stroke="#ff6b00" stroke-width="1"/>
    <line x1="400" y1="0" x2="400" y2="800" stroke="#ff6b00" stroke-width="1"/>
    <line x1="600" y1="0" x2="600" y2="800" stroke="#ff6b00" stroke-width="1"/>
    <line x1="800" y1="0" x2="800" y2="800" stroke="#ff6b00" stroke-width="1"/>
    <line x1="1000" y1="0" x2="1000" y2="800" stroke="#ff6b00" stroke-width="1"/>
    <line x1="1200" y1="0" x2="1200" y2="800" stroke="#ff6b00" stroke-width="1"/>
    <line x1="1400" y1="0" x2="1400" y2="800" stroke="#ff6b00" stroke-width="1"/>
    <line x1="1600" y1="0" x2="1600" y2="800" stroke="#ff6b00" stroke-width="1"/>
    <line x1="1800" y1="0" x2="1800" y2="800" stroke="#ff6b00" stroke-width="1"/>
  </g>
  
  <!-- Dekoratif elementler -->
  <g opacity="0.15">
    <circle cx="200" cy="200" r="5" fill="#ff6b00"/>
    <circle cx="600" cy="400" r="5" fill="#ff6b00"/>
    <circle cx="1000" cy="200" r="5" fill="#ff6b00"/>
    <circle cx="1400" cy="400" r="5" fill="#ff6b00"/>
    <circle cx="1800" cy="200" r="5" fill="#ff6b00"/>
    <circle cx="400" cy="600" r="5" fill="#ff6b00"/>
    <circle cx="800" cy="600" r="5" fill="#ff6b00"/>
    <circle cx="1200" cy="600" r="5" fill="#ff6b00"/>
    <circle cx="1600" cy="600" r="5" fill="#ff6b00"/>
  </g>
  
  <!-- Rust temalı simgeler (stilize edilmiş) -->
  <g opacity="0.2" transform="translate(100, 100)">
    <polygon points="0,0 20,0 20,20 0,20" fill="#ff6b00"/>
  </g>
  
  <g opacity="0.2" transform="translate(1700, 300)">
    <polygon points="0,0 40,0 40,40 0,40" fill="#ff6b00"/>
  </g>
  
  <g opacity="0.2" transform="translate(300, 500)">
    <circle cx="20" cy="20" r="20" fill="#ff6b00"/>
  </g>
  
  <g opacity="0.2" transform="translate(1500, 500)">
    <circle cx="30" cy="30" r="30" fill="#ff6b00"/>
  </g>
</svg>