<svg xmlns="http://www.w3.org/2000/svg" width="100" height="100" viewBox="0 0 100 100">
  <!-- Arka plan -->
  <rect width="100" height="100" fill="#121416"/>
  
  <!-- Desenler -->
  <line x1="0" y1="20" x2="100" y2="20" stroke="#1e2124" stroke-width="1" opacity="0.5"/>
  <line x1="0" y1="40" x2="100" y2="40" stroke="#1e2124" stroke-width="1" opacity="0.5"/>
  <line x1="0" y1="60" x2="100" y2="60" stroke="#1e2124" stroke-width="1" opacity="0.5"/>
  <line x1="0" y1="80" x2="100" y2="80" stroke="#1e2124" stroke-width="1" opacity="0.5"/>
  
  <line x1="20" y1="0" x2="20" y2="100" stroke="#1e2124" stroke-width="1" opacity="0.5"/>
  <line x1="40" y1="0" x2="40" y2="100" stroke="#1e2124" stroke-width="1" opacity="0.5"/>
  <line x1="60" y1="0" x2="60" y2="100" stroke="#1e2124" stroke-width="1" opacity="0.5"/>
  <line x1="80" y1="0" x2="80" y2="100" stroke="#1e2124" stroke-width="1" opacity="0.5"/>
  
  <!-- Noktalar -->
  <circle cx="20" cy="20" r="1" fill="#ff6b00" opacity="0.3"/>
  <circle cx="60" cy="20" r="1" fill="#ff6b00" opacity="0.3"/>
  <circle cx="40" cy="40" r="1" fill="#ff6b00" opacity="0.3"/>
  <circle cx="80" cy="40" r="1" fill="#ff6b00" opacity="0.3"/>
  <circle cx="20" cy="60" r="1" fill="#ff6b00" opacity="0.3"/>
  <circle cx="60" cy="60" r="1" fill="#ff6b00" opacity="0.3"/>
  <circle cx="40" cy="80" r="1" fill="#ff6b00" opacity="0.3"/>
  <circle cx="80" cy="80" r="1" fill="#ff6b00" opacity="0.3"/>
</svg>